<?xml version="1.0" standalone="no"?>
<!DOCTYPE svg PUBLIC "-//W3C//DTD SVG 20010904//EN"
 "http://www.w3.org/TR/2001/REC-SVG-20010904/DTD/svg10.dtd">
<svg version="1.0" xmlns="http://www.w3.org/2000/svg"
 width="1043.000000pt" height="264.000000pt" viewBox="0 0 1043.000000 264.000000"
 preserveAspectRatio="xMidYMid meet">

<g transform="translate(0.000000,264.000000) scale(0.100000,-0.100000)"
fill="#000000" stroke="none">
<path d="M197 2373 c-64 -102 -114 -189 -112 -193 3 -4 320 -200 705 -436 385
-236 700 -431 700 -434 0 -3 -318 -198 -705 -434 -388 -236 -705 -431 -705
-433 0 -6 222 -358 234 -370 8 -9 210 113 876 530 l865 543 2 159 3 160 -837
525 c-460 289 -853 535 -873 547 l-36 22 -117 -186z"/>
<path d="M3132 2012 l-872 -547 0 -156 0 -157 865 -542 c475 -298 868 -542
872 -543 10 -2 244 364 240 376 -1 5 -318 201 -704 435 -386 235 -702 429
-702 432 0 3 319 200 708 439 l708 435 -110 175 c-61 97 -115 182 -121 188 -9
10 -213 -114 -884 -535z"/>
<path d="M5304 2488 c-3 -13 -189 -527 -412 -1143 -223 -616 -407 -1130 -410
-1143 l-4 -22 180 0 180 0 36 103 c20 56 65 185 100 287 l64 185 422 0 422 0
102 -285 102 -285 197 -3 197 -2 -11 27 c-38 99 -859 2295 -859 2299 0 2 -67
4 -149 4 -146 0 -150 0 -157 -22z m313 -988 c84 -233 153 -428 153 -432 0 -4
-139 -8 -310 -8 -246 0 -310 3 -310 13 0 12 264 785 290 852 9 21 14 26 18 15
3 -8 74 -206 159 -440z"/>
<path d="M6640 2345 l0 -165 540 -2 540 -3 -575 -863 c-316 -474 -575 -868
-575 -875 1 -6 11 -66 23 -132 l22 -120 853 -3 852 -2 0 27 c0 16 -9 87 -20
158 -11 72 -20 133 -20 137 0 5 -279 9 -620 10 l-620 3 575 863 576 863 -24
132 -23 132 -752 3 -752 2 0 -165z"/>
<path d="M8370 2505 c0 -3 6 -16 14 -28 8 -12 199 -354 425 -760 l411 -737 2
-398 3 -397 173 -3 172 -2 0 393 0 394 366 694 c201 382 384 729 405 772 l39
77 -193 0 -193 0 -298 -591 c-164 -324 -300 -588 -302 -586 -3 2 -144 267
-313 588 l-309 584 -201 3 c-111 1 -201 0 -201 -3z"/>
</g>
</svg>
