<svg xmlns="http://www.w3.org/2000/svg" version="1.1" xmlns:xlink="http://www.w3.org/1999/xlink" xmlns:svgjs="http://svgjs.com/svgjs" width="559.9604517526386" height="334.83050822171845"><svg xmlns="http://www.w3.org/2000/svg" style="background-color: transparent;" width="559.9604517526386" height="334.83050822171845"><rect id="SvgjsRect1002" width="100%" height="100%" x="0" y="0" fill="none" stroke="none"></rect><g class="currentLayer" style=""><title>Layer 1</title><path stroke="none" fill="#ff2768" stroke-width="1" d="M18.36039545059204,25.4305082321167 L33.970395450592044,0.6305082321166999 L38.77039545059204,3.5605082321166996 L39.16039545059204,3.8005082321167 L39.84039545059204,4.2205082321167 L40.80039545059204,4.8105082321167 L42.02039545059204,5.580508232116699 L43.51039545059204,6.500508232116701 L45.25039545059204,7.590508232116701 L47.23039545059204,8.8305082321167 L49.46039545059204,10.2205082321167 L51.92039545059204,11.750508232116701 L54.60039545059204,13.4305082321167 L57.50039545059204,15.2405082321167 L60.600395450592046,17.1805082321167 L63.910395450592034,19.2505082321167 L67.42039545059204,21.4505082321167 L71.11039545059204,23.7605082321167 L74.98039545059204,26.1805082321167 L83.23039545059204,31.350508232116702 L92.10039545059205,36.9105082321167 L101.55039545059203,42.8305082321167 L111.50039545059204,49.0705082321167 L121.90039545059204,55.590508232116704 L132.69039545059204,62.370508232116705 L143.81039545059204,69.3505082321167 L155.20039545059205,76.5005082321167 L266.82039545059206,146.5005082321167 L266.420395450592,167.8305082321167 L266.16039545059203,189.0305082321167 L150.80039545059205,261.4305082321167 L142.65039545059204,266.5305082321167 L134.86039545059205,271.4005082321167 L127.42039545059205,276.0505082321167 L120.32039545059203,280.4805082321167 L113.55039545059203,284.7005082321167 L107.12039545059204,288.7005082321167 L101.01039545059204,292.5005082321167 L95.22039545059204,296.1005082321167 L89.74039545059205,299.5005082321167 L84.56039545059204,302.7005082321167 L79.67039545059204,305.7105082321167 L75.08039545059204,308.5405082321167 L70.77039545059205,311.1805082321167 L66.73039545059204,313.6505082321167 L62.97039545059204,315.9405082321167 L59.47039545059204,318.0605082321167 L56.23039545059204,320.0205082321167 L53.24039545059204,321.8105082321167 L50.49039545059204,323.4505082321167 L47.98039545059204,324.9305082321167 L45.70039545059204,326.2505082321167 L43.65039545059204,327.4405082321167 L41.81039545059204,328.4805082321167 L40.180395450592044,329.3805082321167 L38.76039545059204,330.1505082321167 L37.53039545059204,330.7905082321167 L36.50039545059204,331.3005082321167 L35.65039545059204,331.6905082321167 L34.98039545059204,331.9605082321167 L34.48039545059204,332.1105082321167 L33.970395450592044,332.1005082321167 L33.74039545059204,331.8205082321167 L33.35039545059204,331.2905082321167 L32.83039545059204,330.5305082321167 L32.17039545059204,329.5505082321167 L31.390395450592038,328.3805082321167 L30.49039545059204,327.0205082321167 L28.42039545059204,323.8305082321167 L26.02039545059204,320.1105082321167 L23.39039545059204,316.0005082321167 L17.760395450592043,307.1305082321167 L14.940395450592042,302.6405082321167 L12.210395450592042,298.3005082321167 L9.67039545059204,294.2405082321167 L7.410395450592041,290.5805082321167 L5.500395450592041,287.4805082321167 L4.710395450592042,286.1705082321167 L4.0303954505920405,285.0505082321167 L3.4903954505920414,284.1305082321167 L3.090395450592041,283.4305082321167 L2.840395450592041,282.9705082321167 L2.760395450592041,282.7605082321167 L2.88039545059204,282.6605082321167 L3.250395450592041,282.4205082321167 L3.850395450592041,282.0305082321167 L4.680395450592041,281.5005082321167 L5.730395450592042,280.8305082321167 L7.000395450592041,280.0305082321167 L8.480395450592042,279.1105082321167 L10.17039545059204,278.0605082321167 L12.06039545059204,276.8805082321167 L14.140395450592042,275.5905082321167 L16.41039545059204,274.1905082321167 L18.86039545059204,272.6805082321167 L21.49039545059204,271.0605082321167 L24.290395450592044,269.3305082321167 L30.370395450592042,265.6005082321167 L37.05039545059204,261.4905082321167 L44.290395450592044,257.0605082321167 L52.05039545059204,252.31050823211672 L60.26039545059204,247.29050823211668 L68.89039545059204,242.0205082321167 L77.89039545059204,236.5305082321167 L87.20039545059204,230.8605082321167 L96.78039545059204,225.0305082321167 L106.34039545059204,219.2005082321167 L115.64039545059204,213.5305082321167 L124.62039545059204,208.0405082321167 L133.25039545059204,202.7705082321167 L141.46039545059205,197.7505082321167 L149.21039545059205,193.0005082321167 L156.46039545059205,188.5505082321167 L163.15039545059204,184.4505082321167 L169.23039545059203,180.7005082321167 L172.03039545059204,178.9805082321167 L174.66039545059203,177.3505082321167 L177.12039545059204,175.8305082321167 L179.39039545059205,174.4205082321167 L181.48039545059203,173.1305082321167 L183.37039545059204,171.9505082321167 L185.06039545059204,170.8905082321167 L186.55039545059205,169.9605082321167 L187.82039545059203,169.1505082321167 L188.88039545059203,168.47050823211669 L189.71039545059205,167.9305082321167 L190.32039545059203,167.5305082321167 L190.68039545059204,167.2705082321167 L190.80039545059205,167.1605082321167 L190.68039545059204,167.0505082321167 L190.32039545059203,166.7905082321167 L189.72039545059204,166.3905082321167 L188.90039545059204,165.8505082321167 L187.85039545059203,165.1805082321167 L186.59039545059204,164.3705082321167 L185.12039545059204,163.4405082321167 L183.44039545059204,162.3805082321167 L181.56039545059204,161.2005082321167 L179.49039545059205,159.9005082321167 L177.24039545059205,158.4905082321167 L174.80039545059205,156.97050823211669 L169.42039545059205,153.6205082321167 L163.38039545059203,149.8805082321167 L156.74039545059205,145.7705082321167 L149.55039545059205,141.3305082321167 L141.85039545059203,136.5805082321167 L133.70039545059205,131.5605082321167 L125.13039545059203,126.29050823211671 L116.20039545059204,120.8005082321167 L106.96039545059205,115.1305082321167 L97.45039545059204,109.3005082321167 L87.94039545059204,103.4605082321167 L78.68039545059204,97.7905082321167 L69.74039545059205,92.2905082321167 L61.15039545059204,87.0105082321167 L52.970395450592044,81.9805082321167 L45.24039545059204,77.2205082321167 L38.01039545059204,72.7605082321167 L31.330395450592043,68.6305082321167 L25.250395450592038,64.8705082321167 L19.81039545059204,61.490508232116696 L17.350395450592043,59.9705082321167 L15.070395450592041,58.54050823211669 L12.97039545059204,57.240508232116696 L11.070395450592041,56.0505082321167 L9.36039545059204,54.980508232116705 L7.850395450592041,54.0305082321167 L6.560395450592042,53.2105082321167 L5.470395450592042,52.5205082321167 L4.62039545059204,51.9705082321167 L3.9803954505920416,51.560508232116696 L3.590395450592041,51.2905082321167 L3.430395450592041,51.1605082321167 L3.4603954505920402,50.9405082321167 L3.6403954505920417,50.4605082321167 L3.970395450592042,49.7605082321167 L4.4503954505920404,48.8305082321167 L5.050395450592042,47.7005082321167 L5.7803954505920405,46.3705082321167 L6.63039545059204,44.8705082321167 L7.590395450592041,43.2005082321167 L9.820395450592041,39.4105082321167 L12.390395450592042,35.1105082321167 L15.260395450592043,30.420508232116703 L18.36039545059204,25.4305082321167 " id="SvgjsPath1001" class="" fill-opacity="1"></path><path stroke="none" fill="#ff2768" stroke-width="1" d="M409.79039545059203,73.5605082321167 L418.00039545059207,68.4205082321167 L425.85039545059203,63.5005082321167 L433.35039545059203,58.8005082321167 L440.50039545059207,54.3305082321167 L447.31039545059207,50.0705082321167 L453.800395450592,46.0205082321167 L459.96039545059205,42.1805082321167 L465.800395450592,38.5505082321167 L471.32039545059206,35.1105082321167 L476.550395450592,31.880508232116696 L481.47039545059204,28.8305082321167 L486.10039545059203,25.9705082321167 L490.45039545059205,23.300508232116698 L494.52039545059205,20.8105082321167 L498.31039545059207,18.4905082321167 L501.85039545059203,16.3505082321167 L505.120395450592,14.370508232116698 L508.140395450592,12.5605082321167 L510.9103954505921,10.910508232116698 L513.450395450592,9.410508232116698 L515.750395450592,8.070508232116698 L517.830395450592,6.8805082321167 L519.6903954505921,5.830508232116699 L521.340395450592,4.920508232116699 L522.7803954505921,4.1505082321166995 L524.0303954505921,3.510508232116699 L525.080395450592,3.000508232116699 L525.950395450592,2.6105082321166986 L526.630395450592,2.340508232116699 L527.150395450592,2.1905082321166987 L527.6803954505921,2.2305082321166996 L527.9103954505921,2.500508232116699 L528.270395450592,3.010508232116699 L528.770395450592,3.7305082321166996 L529.400395450592,4.670508232116699 L530.140395450592,5.7905082321167 L531.000395450592,7.100508232116699 L533.000395450592,10.210508232116698 L535.350395450592,13.890508232116698 L537.980395450592,18.0405082321167 L540.830395450592,22.5405082321167 L543.8203954505921,27.300508232116698 L558.490395450592,50.630508232116696 L464.07039545059206,108.6305082321167 L454.46039545059205,114.5305082321167 L445.120395450592,120.28050823211669 L436.09039545059204,125.8305082321167 L427.430395450592,131.1605082321167 L419.180395450592,136.2505082321167 L411.40039545059204,141.0505082321167 L404.120395450592,145.5405082321167 L397.40039545059204,149.7005082321167 L391.300395450592,153.4805082321167 L388.480395450592,155.2305082321167 L385.84039545059204,156.8705082321167 L383.38039545059206,158.4005082321167 L381.10039545059203,159.8305082321167 L379.00039545059207,161.1405082321167 L377.110395450592,162.3305082321167 L375.41039545059203,163.4005082321167 L373.920395450592,164.3405082321167 L372.64039545059205,165.1605082321167 L371.58039545059205,165.8405082321167 L370.740395450592,166.3905082321167 L370.14039545059205,166.7905082321167 L369.77039545059205,167.0505082321167 L369.65039545059204,167.1605082321167 L369.77039545059205,167.2705082321167 L370.13039545059206,167.5305082321167 L370.730395450592,167.9305082321167 L371.56039545059207,168.47050823211669 L372.610395450592,169.1405082321167 L373.88039545059206,169.9405082321167 L375.35039545059203,170.8705082321167 L377.04039545059203,171.9305082321167 L378.920395450592,173.1005082321167 L380.990395450592,174.3905082321167 L383.25039545059207,175.7905082321167 L385.70039545059205,177.3005082321167 L391.10039545059203,180.6405082321167 L397.15039545059204,184.3605082321167 L403.81039545059207,188.4505082321167 L411.02039545059205,192.8705082321167 L418.740395450592,197.6005082321167 L426.920395450592,202.6005082321167 L435.51039545059206,207.8505082321167 L444.47039545059204,213.3105082321167 L453.730395450592,218.9605082321167 L463.27039545059205,224.7605082321167 L472.81039545059207,230.5505082321167 L482.08039545059205,236.1905082321167 L491.04039545059203,241.6405082321167 L499.64039545059205,246.8905082321167 L507.83039545059205,251.91050823211668 L515.5603954505921,256.6505082321167 L522.7903954505921,261.1005082321167 L529.470395450592,265.2105082321167 L535.5403954505921,268.9705082321167 L540.970395450592,272.3505082321167 L543.4203954505921,273.8805082321167 L545.6903954505921,275.3005082321167 L547.7803954505921,276.6105082321167 L549.6703954505921,277.8105082321167 L551.370395450592,278.8805082321167 L552.860395450592,279.8405082321167 L554.140395450592,280.6605082321167 L555.200395450592,281.3605082321167 L556.0403954505921,281.9205082321167 L556.650395450592,282.3405082321167 L557.020395450592,282.6305082321167 L557.1603954505921,282.7605082321167 L557.120395450592,283.0505082321167 L556.900395450592,283.5905082321167 L556.520395450592,284.3805082321167 L555.990395450592,285.3905082321167 L555.3203954505921,286.6005082321167 L554.520395450592,288.0105082321167 L552.5703954505921,291.3105082321167 L550.240395450592,295.1505082321167 L547.620395450592,299.4005082321167 L544.7903954505921,303.9005082321167 L541.860395450592,308.5305082321167 L538.900395450592,313.1305082321167 L536.010395450592,317.5705082321167 L533.270395450592,321.7105082321167 L530.7903954505921,325.4005082321167 L528.650395450592,328.5105082321167 L527.730395450592,329.8005082321167 L526.9303954505921,330.8805082321167 L526.260395450592,331.7605082321167 L525.740395450592,332.4005082321167 L525.360395450592,332.7805082321167 L525.150395450592,332.9005082321167 L524.950395450592,332.7905082321167 L524.450395450592,332.5005082321167 L523.6703954505921,332.0305082321167 L522.600395450592,331.3805082321167 L521.260395450592,330.5605082321167 L519.650395450592,329.5705082321167 L517.7803954505921,328.4205082321167 L515.6603954505921,327.1205082321167 L513.3003954505921,325.6605082321167 L510.70039545059205,324.0505082321167 L507.870395450592,322.3005082321167 L504.82039545059206,320.4105082321167 L501.56039545059207,318.3805082321167 L498.09039545059204,316.2305082321167 L494.420395450592,313.9505082321167 L490.56039545059207,311.5505082321167 L486.52039545059205,309.0305082321167 L482.29039545059203,306.4005082321167 L473.35039545059203,300.8305082321167 L463.79039545059203,294.8705082321167 L453.680395450592,288.5505082321167 L443.07039545059206,281.9205082321167 L432.02039545059205,275.0105082321167 L420.60039545059203,267.8605082321167 L408.860395450592,260.5005082321167 L293.50039545059207,188.2305082321167 L293.50039545059207,146.5005082321167 L409.79039545059203,73.5605082321167 " id="SvgjsPath1000" class="" fill-opacity="1"></path></g></svg><style>@media (prefers-color-scheme: light) { :root { filter: none; } }
</style></svg>